<mxfile host="app.diagrams.net" agent="Mozilla/5.0 (Windows NT 10.0; Win64; x64) AppleWebKit/537.36 (KHTML, like Gecko) Chrome/136.0.0.0 Safari/537.36 Edg/136.0.0.0" version="27.0.5">
  <diagram name="Pagina-1" id="nsfDxvCUKsriRhA3tgKR">
    <mxGraphModel dx="1215" dy="200" grid="1" gridSize="10" guides="1" tooltips="1" connect="1" arrows="1" fold="1" page="1" pageScale="1" pageWidth="827" pageHeight="1169" math="0" shadow="0">
      <root>
        <mxCell id="0" />
        <mxCell id="1" parent="0" />
        <mxCell id="lGzkBSGwy-ZSneuleJNB-13" value="&lt;font&gt;Cliente&lt;/font&gt;" style="whiteSpace=wrap;html=1;align=center;fontFamily=Times New Roman;" vertex="1" parent="1">
          <mxGeometry x="-490" y="369.76" width="110" height="40" as="geometry" />
        </mxCell>
        <mxCell id="lGzkBSGwy-ZSneuleJNB-26" style="edgeStyle=none;shape=connector;rounded=0;orthogonalLoop=1;jettySize=auto;html=1;strokeColor=default;align=center;verticalAlign=middle;fontFamily=Times New Roman;fontSize=11;fontColor=default;labelBackgroundColor=default;startFill=0;endArrow=none;" edge="1" parent="1">
          <mxGeometry relative="1" as="geometry">
            <mxPoint x="-600" y="280" as="targetPoint" />
            <mxPoint x="-600" y="370" as="sourcePoint" />
          </mxGeometry>
        </mxCell>
        <mxCell id="lGzkBSGwy-ZSneuleJNB-109" style="edgeStyle=orthogonalEdgeStyle;shape=connector;rounded=0;orthogonalLoop=1;jettySize=auto;html=1;exitX=0;exitY=0.5;exitDx=0;exitDy=0;strokeColor=default;align=center;verticalAlign=middle;fontFamily=Times New Roman;fontSize=11;fontColor=default;labelBackgroundColor=default;startFill=0;endArrow=none;" edge="1" parent="1">
          <mxGeometry relative="1" as="geometry">
            <mxPoint x="-760" y="389.92" as="targetPoint" />
            <mxPoint x="-620" y="389.32" as="sourcePoint" />
          </mxGeometry>
        </mxCell>
        <mxCell id="lGzkBSGwy-ZSneuleJNB-14" value="Amministratore" style="whiteSpace=wrap;html=1;align=center;fontFamily=Times New Roman;" vertex="1" parent="1">
          <mxGeometry x="-660" y="370.4" width="110" height="40" as="geometry" />
        </mxCell>
        <mxCell id="lGzkBSGwy-ZSneuleJNB-15" value="&lt;font&gt;Utente&lt;/font&gt;" style="whiteSpace=wrap;html=1;align=center;fontFamily=Times New Roman;" vertex="1" parent="1">
          <mxGeometry x="-550" y="200" width="100" height="40" as="geometry" />
        </mxCell>
        <mxCell id="lGzkBSGwy-ZSneuleJNB-198" style="edgeStyle=orthogonalEdgeStyle;shape=connector;rounded=0;orthogonalLoop=1;jettySize=auto;html=1;exitX=0.5;exitY=1;exitDx=0;exitDy=0;entryX=0.25;entryY=0;entryDx=0;entryDy=0;strokeColor=default;align=center;verticalAlign=middle;fontFamily=Times New Roman;fontSize=11;fontColor=default;labelBackgroundColor=default;startFill=0;endArrow=none;" edge="1" parent="1" source="lGzkBSGwy-ZSneuleJNB-16" target="lGzkBSGwy-ZSneuleJNB-15">
          <mxGeometry relative="1" as="geometry" />
        </mxCell>
        <mxCell id="lGzkBSGwy-ZSneuleJNB-16" value="" style="ellipse;whiteSpace=wrap;html=1;aspect=fixed;fillColor=#000000;fontFamily=Times New Roman;" vertex="1" parent="1">
          <mxGeometry x="-530" y="172" width="10" height="10" as="geometry" />
        </mxCell>
        <mxCell id="lGzkBSGwy-ZSneuleJNB-17" value="&lt;font&gt;Nome utente&lt;/font&gt;" style="text;html=1;align=center;verticalAlign=middle;resizable=0;points=[];autosize=1;strokeColor=none;fillColor=none;fontSize=7;fontFamily=Times New Roman;" vertex="1" parent="1">
          <mxGeometry x="-560" y="155" width="60" height="20" as="geometry" />
        </mxCell>
        <mxCell id="lGzkBSGwy-ZSneuleJNB-21" style="edgeStyle=orthogonalEdgeStyle;shape=connector;rounded=0;orthogonalLoop=1;jettySize=auto;html=1;exitX=0.5;exitY=1;exitDx=0;exitDy=0;entryX=0.75;entryY=0;entryDx=0;entryDy=0;strokeColor=default;align=center;verticalAlign=middle;fontFamily=Times New Roman;fontSize=11;fontColor=default;labelBackgroundColor=default;startFill=0;endArrow=none;" edge="1" parent="1" source="lGzkBSGwy-ZSneuleJNB-18" target="lGzkBSGwy-ZSneuleJNB-15">
          <mxGeometry relative="1" as="geometry" />
        </mxCell>
        <mxCell id="lGzkBSGwy-ZSneuleJNB-18" value="" style="ellipse;whiteSpace=wrap;html=1;aspect=fixed;fontFamily=Times New Roman;" vertex="1" parent="1">
          <mxGeometry x="-480" y="172" width="10" height="10" as="geometry" />
        </mxCell>
        <mxCell id="lGzkBSGwy-ZSneuleJNB-19" value="&lt;font&gt;Password&lt;/font&gt;" style="text;html=1;align=center;verticalAlign=middle;resizable=0;points=[];autosize=1;strokeColor=none;fillColor=none;fontSize=7;fontFamily=Times New Roman;" vertex="1" parent="1">
          <mxGeometry x="-505" y="155" width="50" height="20" as="geometry" />
        </mxCell>
        <mxCell id="lGzkBSGwy-ZSneuleJNB-23" value="" style="shape=flexArrow;endArrow=classic;html=1;rounded=0;strokeColor=default;align=center;verticalAlign=middle;fontFamily=Times New Roman;fontSize=7;fontColor=default;labelBackgroundColor=default;autosize=1;resizable=0;edgeStyle=orthogonalEdgeStyle;fillColor=#000000;" edge="1" parent="1">
          <mxGeometry width="50" height="50" relative="1" as="geometry">
            <mxPoint x="-499.97" y="280" as="sourcePoint" />
            <mxPoint x="-499.97" y="240" as="targetPoint" />
            <Array as="points">
              <mxPoint x="-499.97" y="255" />
              <mxPoint x="-499.97" y="255" />
            </Array>
          </mxGeometry>
        </mxCell>
        <mxCell id="lGzkBSGwy-ZSneuleJNB-27" value="" style="endArrow=none;html=1;rounded=0;strokeColor=default;align=center;verticalAlign=middle;fontFamily=Times New Roman;fontSize=11;fontColor=default;labelBackgroundColor=default;edgeStyle=none;" edge="1" parent="1">
          <mxGeometry width="50" height="50" relative="1" as="geometry">
            <mxPoint x="-560" y="280" as="sourcePoint" />
            <mxPoint x="-440" y="280" as="targetPoint" />
          </mxGeometry>
        </mxCell>
        <mxCell id="lGzkBSGwy-ZSneuleJNB-29" value="" style="endArrow=none;html=1;rounded=0;strokeColor=default;align=center;verticalAlign=middle;fontFamily=Times New Roman;fontSize=11;fontColor=default;labelBackgroundColor=default;edgeStyle=none;" edge="1" parent="1">
          <mxGeometry width="50" height="50" relative="1" as="geometry">
            <mxPoint x="-430" y="280" as="sourcePoint" />
            <mxPoint x="-480" y="280" as="targetPoint" />
          </mxGeometry>
        </mxCell>
        <mxCell id="lGzkBSGwy-ZSneuleJNB-30" value="" style="endArrow=none;html=1;rounded=0;strokeColor=default;align=center;verticalAlign=middle;fontFamily=Times New Roman;fontSize=11;fontColor=default;labelBackgroundColor=default;edgeStyle=none;exitX=0.545;exitY=0.047;exitDx=0;exitDy=0;exitPerimeter=0;" edge="1" parent="1" source="lGzkBSGwy-ZSneuleJNB-13">
          <mxGeometry width="50" height="50" relative="1" as="geometry">
            <mxPoint x="-470" y="340" as="sourcePoint" />
            <mxPoint x="-430" y="280" as="targetPoint" />
          </mxGeometry>
        </mxCell>
        <mxCell id="lGzkBSGwy-ZSneuleJNB-32" value="&lt;font&gt;Carta di&lt;br&gt;Credito&lt;/font&gt;" style="ellipse;whiteSpace=wrap;html=1;align=center;fontFamily=Times New Roman;" vertex="1" parent="1">
          <mxGeometry x="-440" y="200" width="100" height="40" as="geometry" />
        </mxCell>
        <mxCell id="lGzkBSGwy-ZSneuleJNB-33" value="" style="ellipse;whiteSpace=wrap;html=1;aspect=fixed;fontFamily=Times New Roman;" vertex="1" parent="1">
          <mxGeometry x="-440" y="180" width="10" height="10" as="geometry" />
        </mxCell>
        <mxCell id="lGzkBSGwy-ZSneuleJNB-34" value="" style="ellipse;whiteSpace=wrap;html=1;aspect=fixed;fontFamily=Times New Roman;" vertex="1" parent="1">
          <mxGeometry x="-410" y="180" width="10" height="10" as="geometry" />
        </mxCell>
        <mxCell id="lGzkBSGwy-ZSneuleJNB-35" style="edgeStyle=orthogonalEdgeStyle;rounded=0;orthogonalLoop=1;jettySize=auto;html=1;exitX=0.5;exitY=1;exitDx=0;exitDy=0;entryX=0.05;entryY=0.25;entryDx=0;entryDy=0;entryPerimeter=0;endArrow=none;startFill=0;fontFamily=Times New Roman;" edge="1" parent="1" source="lGzkBSGwy-ZSneuleJNB-33" target="lGzkBSGwy-ZSneuleJNB-32">
          <mxGeometry relative="1" as="geometry" />
        </mxCell>
        <mxCell id="lGzkBSGwy-ZSneuleJNB-36" style="edgeStyle=orthogonalEdgeStyle;rounded=0;orthogonalLoop=1;jettySize=auto;html=1;exitX=0.5;exitY=1;exitDx=0;exitDy=0;entryX=0.35;entryY=0.041;entryDx=0;entryDy=0;entryPerimeter=0;endArrow=none;startFill=0;fontFamily=Times New Roman;" edge="1" parent="1" source="lGzkBSGwy-ZSneuleJNB-34" target="lGzkBSGwy-ZSneuleJNB-32">
          <mxGeometry relative="1" as="geometry" />
        </mxCell>
        <mxCell id="lGzkBSGwy-ZSneuleJNB-37" value="" style="ellipse;whiteSpace=wrap;html=1;aspect=fixed;fontFamily=Times New Roman;" vertex="1" parent="1">
          <mxGeometry x="-390" y="180" width="10" height="10" as="geometry" />
        </mxCell>
        <mxCell id="lGzkBSGwy-ZSneuleJNB-38" value="" style="ellipse;whiteSpace=wrap;html=1;aspect=fixed;fontFamily=Times New Roman;" vertex="1" parent="1">
          <mxGeometry x="-370" y="180" width="10" height="10" as="geometry" />
        </mxCell>
        <mxCell id="lGzkBSGwy-ZSneuleJNB-39" style="edgeStyle=orthogonalEdgeStyle;rounded=0;orthogonalLoop=1;jettySize=auto;html=1;exitX=0.5;exitY=1;exitDx=0;exitDy=0;entryX=0.55;entryY=0.003;entryDx=0;entryDy=0;entryPerimeter=0;endArrow=none;startFill=0;fontFamily=Times New Roman;" edge="1" parent="1" source="lGzkBSGwy-ZSneuleJNB-37" target="lGzkBSGwy-ZSneuleJNB-32">
          <mxGeometry relative="1" as="geometry" />
        </mxCell>
        <mxCell id="lGzkBSGwy-ZSneuleJNB-40" style="edgeStyle=orthogonalEdgeStyle;shape=connector;rounded=0;orthogonalLoop=1;jettySize=auto;html=1;exitX=0.5;exitY=1;exitDx=0;exitDy=0;entryX=0.754;entryY=0.07;entryDx=0;entryDy=0;entryPerimeter=0;strokeColor=default;align=center;verticalAlign=middle;fontFamily=Times New Roman;fontSize=11;fontColor=default;labelBackgroundColor=default;startFill=0;endArrow=none;" edge="1" parent="1" source="lGzkBSGwy-ZSneuleJNB-38" target="lGzkBSGwy-ZSneuleJNB-32">
          <mxGeometry relative="1" as="geometry" />
        </mxCell>
        <mxCell id="lGzkBSGwy-ZSneuleJNB-41" value="&lt;font&gt;Intestatario&lt;/font&gt;" style="text;html=1;align=center;verticalAlign=middle;whiteSpace=wrap;rounded=0;fontFamily=Times New Roman;fontSize=7;fontColor=default;labelBackgroundColor=default;" vertex="1" parent="1">
          <mxGeometry x="-470" y="160" width="60" height="30" as="geometry" />
        </mxCell>
        <mxCell id="lGzkBSGwy-ZSneuleJNB-42" value="&lt;font&gt;CVV&lt;/font&gt;" style="text;html=1;align=center;verticalAlign=middle;resizable=0;points=[];autosize=1;strokeColor=none;fillColor=none;fontFamily=Times New Roman;fontSize=7;fontColor=default;labelBackgroundColor=default;" vertex="1" parent="1">
          <mxGeometry x="-430" y="165" width="40" height="20" as="geometry" />
        </mxCell>
        <mxCell id="lGzkBSGwy-ZSneuleJNB-43" value="&lt;font&gt;Numero&lt;/font&gt;" style="text;html=1;align=center;verticalAlign=middle;resizable=0;points=[];autosize=1;strokeColor=none;fillColor=none;fontFamily=Times New Roman;fontSize=7;fontColor=default;labelBackgroundColor=default;" vertex="1" parent="1">
          <mxGeometry x="-410" y="165" width="50" height="20" as="geometry" />
        </mxCell>
        <mxCell id="lGzkBSGwy-ZSneuleJNB-44" value="&lt;font&gt;Data&lt;br&gt;Scadenza&lt;/font&gt;" style="text;html=1;align=center;verticalAlign=middle;resizable=0;points=[];autosize=1;strokeColor=none;fillColor=none;fontFamily=Times New Roman;fontSize=7;fontColor=default;labelBackgroundColor=default;" vertex="1" parent="1">
          <mxGeometry x="-380" y="155" width="50" height="30" as="geometry" />
        </mxCell>
        <mxCell id="lGzkBSGwy-ZSneuleJNB-45" value="" style="endArrow=none;html=1;rounded=0;strokeColor=default;align=center;verticalAlign=middle;fontFamily=Times New Roman;fontSize=11;fontColor=default;labelBackgroundColor=default;edgeStyle=orthogonalEdgeStyle;" edge="1" parent="1">
          <mxGeometry width="50" height="50" relative="1" as="geometry">
            <mxPoint x="-400" y="360" as="sourcePoint" />
            <mxPoint x="-400" y="320" as="targetPoint" />
          </mxGeometry>
        </mxCell>
        <mxCell id="lGzkBSGwy-ZSneuleJNB-49" value="&lt;font&gt;(1,n)&lt;/font&gt;" style="text;html=1;align=center;verticalAlign=middle;resizable=0;points=[];autosize=1;strokeColor=none;fillColor=none;fontFamily=Times New Roman;fontSize=7;fontColor=default;labelBackgroundColor=default;" vertex="1" parent="1">
          <mxGeometry x="-410" y="349.76" width="40" height="20" as="geometry" />
        </mxCell>
        <mxCell id="lGzkBSGwy-ZSneuleJNB-50" value="" style="ellipse;whiteSpace=wrap;html=1;aspect=fixed;fontFamily=Times New Roman;" vertex="1" parent="1">
          <mxGeometry x="-400" y="440" width="10" height="10" as="geometry" />
        </mxCell>
        <mxCell id="lGzkBSGwy-ZSneuleJNB-57" value="" style="ellipse;whiteSpace=wrap;html=1;aspect=fixed;fontFamily=Times New Roman;" vertex="1" parent="1">
          <mxGeometry x="-70" y="270" width="10" height="10" as="geometry" />
        </mxCell>
        <mxCell id="lGzkBSGwy-ZSneuleJNB-59" value="" style="ellipse;whiteSpace=wrap;html=1;aspect=fixed;fontFamily=Times New Roman;" vertex="1" parent="1">
          <mxGeometry x="-460" y="440" width="10" height="10" as="geometry" />
        </mxCell>
        <mxCell id="lGzkBSGwy-ZSneuleJNB-60" value="" style="ellipse;whiteSpace=wrap;html=1;aspect=fixed;fillColor=#000000;fontFamily=Times New Roman;" vertex="1" parent="1">
          <mxGeometry x="-480" y="440" width="10" height="10" as="geometry" />
        </mxCell>
        <mxCell id="lGzkBSGwy-ZSneuleJNB-64" style="edgeStyle=orthogonalEdgeStyle;shape=connector;rounded=0;orthogonalLoop=1;jettySize=auto;html=1;exitX=0.5;exitY=0;exitDx=0;exitDy=0;entryX=0.135;entryY=0.99;entryDx=0;entryDy=0;entryPerimeter=0;strokeColor=default;align=center;verticalAlign=middle;fontFamily=Times New Roman;fontSize=7;fontColor=default;labelBackgroundColor=default;autosize=1;resizable=0;startFill=0;endArrow=none;" edge="1" parent="1" source="lGzkBSGwy-ZSneuleJNB-60" target="lGzkBSGwy-ZSneuleJNB-13">
          <mxGeometry relative="1" as="geometry" />
        </mxCell>
        <mxCell id="lGzkBSGwy-ZSneuleJNB-65" value="&lt;font&gt;CF&lt;/font&gt;" style="text;html=1;align=center;verticalAlign=middle;resizable=0;points=[];autosize=1;strokeColor=none;fillColor=none;fontFamily=Times New Roman;fontSize=7;fontColor=default;labelBackgroundColor=default;" vertex="1" parent="1">
          <mxGeometry x="-490" y="450" width="30" height="20" as="geometry" />
        </mxCell>
        <mxCell id="lGzkBSGwy-ZSneuleJNB-67" style="edgeStyle=orthogonalEdgeStyle;shape=connector;rounded=0;orthogonalLoop=1;jettySize=auto;html=1;exitX=0.5;exitY=0;exitDx=0;exitDy=0;entryX=0.314;entryY=0.988;entryDx=0;entryDy=0;entryPerimeter=0;strokeColor=default;align=center;verticalAlign=middle;fontFamily=Times New Roman;fontSize=7;fontColor=default;labelBackgroundColor=default;autosize=1;resizable=0;startFill=0;endArrow=none;" edge="1" parent="1" source="lGzkBSGwy-ZSneuleJNB-59" target="lGzkBSGwy-ZSneuleJNB-13">
          <mxGeometry relative="1" as="geometry" />
        </mxCell>
        <mxCell id="lGzkBSGwy-ZSneuleJNB-68" value="&lt;font&gt;Data&lt;br&gt;Nascita&lt;/font&gt;" style="text;html=1;align=center;verticalAlign=middle;resizable=0;points=[];autosize=1;strokeColor=none;fillColor=none;fontFamily=Times New Roman;fontSize=7;fontColor=default;labelBackgroundColor=default;" vertex="1" parent="1">
          <mxGeometry x="-470" y="445" width="40" height="30" as="geometry" />
        </mxCell>
        <mxCell id="lGzkBSGwy-ZSneuleJNB-70" value="&lt;font&gt;Citta&lt;br&gt;Nascita&lt;/font&gt;" style="text;html=1;align=center;verticalAlign=middle;resizable=0;points=[];autosize=1;strokeColor=none;fillColor=none;fontFamily=Times New Roman;fontSize=7;fontColor=default;labelBackgroundColor=default;" vertex="1" parent="1">
          <mxGeometry x="-405" y="445" width="40" height="30" as="geometry" />
        </mxCell>
        <mxCell id="lGzkBSGwy-ZSneuleJNB-73" value="Nome" style="text;html=1;align=center;verticalAlign=middle;resizable=0;points=[];autosize=1;strokeColor=none;fillColor=none;fontFamily=Times New Roman;fontSize=7;fontColor=default;labelBackgroundColor=default;" vertex="1" parent="1">
          <mxGeometry x="-545" y="375.4" width="40" height="20" as="geometry" />
        </mxCell>
        <mxCell id="lGzkBSGwy-ZSneuleJNB-81" style="edgeStyle=orthogonalEdgeStyle;shape=connector;rounded=0;orthogonalLoop=1;jettySize=auto;html=1;exitX=1;exitY=0.5;exitDx=0;exitDy=0;entryX=0;entryY=0.75;entryDx=0;entryDy=0;strokeColor=default;align=center;verticalAlign=middle;fontFamily=Times New Roman;fontSize=11;fontColor=default;labelBackgroundColor=default;startFill=0;endArrow=none;" edge="1" parent="1" source="lGzkBSGwy-ZSneuleJNB-74" target="lGzkBSGwy-ZSneuleJNB-13">
          <mxGeometry relative="1" as="geometry" />
        </mxCell>
        <mxCell id="lGzkBSGwy-ZSneuleJNB-74" value="" style="ellipse;whiteSpace=wrap;html=1;aspect=fixed;fontFamily=Times New Roman;" vertex="1" parent="1">
          <mxGeometry x="-515" y="399.76" width="10" height="10" as="geometry" />
        </mxCell>
        <mxCell id="lGzkBSGwy-ZSneuleJNB-76" value="Cognome" style="text;html=1;align=center;verticalAlign=middle;resizable=0;points=[];autosize=1;strokeColor=none;fillColor=none;fontFamily=Times New Roman;fontSize=7;fontColor=default;labelBackgroundColor=default;" vertex="1" parent="1">
          <mxGeometry x="-550" y="405" width="50" height="20" as="geometry" />
        </mxCell>
        <mxCell id="lGzkBSGwy-ZSneuleJNB-80" style="edgeStyle=orthogonalEdgeStyle;shape=connector;rounded=0;orthogonalLoop=1;jettySize=auto;html=1;exitX=0.5;exitY=0;exitDx=0;exitDy=0;entryX=0.864;entryY=1.002;entryDx=0;entryDy=0;entryPerimeter=0;strokeColor=default;align=center;verticalAlign=middle;fontFamily=Times New Roman;fontSize=11;fontColor=default;labelBackgroundColor=default;startFill=0;endArrow=none;" edge="1" parent="1" source="lGzkBSGwy-ZSneuleJNB-50" target="lGzkBSGwy-ZSneuleJNB-13">
          <mxGeometry relative="1" as="geometry" />
        </mxCell>
        <mxCell id="lGzkBSGwy-ZSneuleJNB-82" value="" style="ellipse;whiteSpace=wrap;html=1;aspect=fixed;fontFamily=Times New Roman;" vertex="1" parent="1">
          <mxGeometry x="-515" y="379.76" width="10" height="10" as="geometry" />
        </mxCell>
        <mxCell id="lGzkBSGwy-ZSneuleJNB-83" style="edgeStyle=orthogonalEdgeStyle;shape=connector;rounded=0;orthogonalLoop=1;jettySize=auto;html=1;exitX=1;exitY=0.5;exitDx=0;exitDy=0;entryX=0.002;entryY=0.224;entryDx=0;entryDy=0;entryPerimeter=0;strokeColor=default;align=center;verticalAlign=middle;fontFamily=Times New Roman;fontSize=11;fontColor=default;labelBackgroundColor=default;startFill=0;endArrow=none;" edge="1" parent="1" source="lGzkBSGwy-ZSneuleJNB-82" target="lGzkBSGwy-ZSneuleJNB-13">
          <mxGeometry relative="1" as="geometry" />
        </mxCell>
        <mxCell id="lGzkBSGwy-ZSneuleJNB-84" value="&lt;font style=&quot;&quot;&gt;Formulare&lt;/font&gt;" style="shape=rhombus;perimeter=rhombusPerimeter;whiteSpace=wrap;html=1;align=center;fontFamily=Times New Roman;" vertex="1" parent="1">
          <mxGeometry x="-320" y="365" width="120" height="60" as="geometry" />
        </mxCell>
        <mxCell id="lGzkBSGwy-ZSneuleJNB-86" style="edgeStyle=orthogonalEdgeStyle;shape=connector;rounded=0;orthogonalLoop=1;jettySize=auto;html=1;exitX=0;exitY=0.5;exitDx=0;exitDy=0;entryX=0.998;entryY=0.615;entryDx=0;entryDy=0;entryPerimeter=0;strokeColor=default;align=center;verticalAlign=middle;fontFamily=Times New Roman;fontSize=11;fontColor=default;labelBackgroundColor=default;startFill=0;endArrow=none;" edge="1" parent="1" source="lGzkBSGwy-ZSneuleJNB-84" target="lGzkBSGwy-ZSneuleJNB-13">
          <mxGeometry relative="1" as="geometry" />
        </mxCell>
        <mxCell id="lGzkBSGwy-ZSneuleJNB-112" style="edgeStyle=orthogonalEdgeStyle;shape=connector;rounded=0;orthogonalLoop=1;jettySize=auto;html=1;exitX=0.5;exitY=1;exitDx=0;exitDy=0;entryX=0.5;entryY=0;entryDx=0;entryDy=0;strokeColor=default;align=center;verticalAlign=middle;fontFamily=Times New Roman;fontSize=11;fontColor=default;labelBackgroundColor=default;startFill=0;endArrow=none;" edge="1" parent="1" source="lGzkBSGwy-ZSneuleJNB-88" target="lGzkBSGwy-ZSneuleJNB-111">
          <mxGeometry relative="1" as="geometry" />
        </mxCell>
        <mxCell id="lGzkBSGwy-ZSneuleJNB-88" value="&lt;font&gt;Offerte&lt;/font&gt;" style="whiteSpace=wrap;html=1;align=center;fontFamily=Times New Roman;" vertex="1" parent="1">
          <mxGeometry x="-130" y="369.76" width="120" height="40" as="geometry" />
        </mxCell>
        <mxCell id="lGzkBSGwy-ZSneuleJNB-268" style="edgeStyle=orthogonalEdgeStyle;shape=connector;rounded=0;orthogonalLoop=1;jettySize=auto;html=1;exitX=0;exitY=0.5;exitDx=0;exitDy=0;entryX=1;entryY=0.5;entryDx=0;entryDy=0;strokeColor=default;align=center;verticalAlign=middle;fontFamily=Helvetica;fontSize=11;fontColor=default;labelBackgroundColor=default;startFill=0;endArrow=none;" edge="1" parent="1" source="lGzkBSGwy-ZSneuleJNB-90" target="lGzkBSGwy-ZSneuleJNB-88">
          <mxGeometry relative="1" as="geometry" />
        </mxCell>
        <mxCell id="lGzkBSGwy-ZSneuleJNB-90" value="" style="ellipse;whiteSpace=wrap;html=1;aspect=fixed;fontFamily=Times New Roman;" vertex="1" parent="1">
          <mxGeometry x="10" y="384.76" width="10" height="10" as="geometry" />
        </mxCell>
        <mxCell id="lGzkBSGwy-ZSneuleJNB-97" value="&lt;font&gt;Valore&lt;br&gt;Effettivo&lt;/font&gt;" style="text;html=1;align=center;verticalAlign=middle;resizable=0;points=[];autosize=1;strokeColor=none;fillColor=none;fontFamily=Times New Roman;fontSize=7;fontColor=default;labelBackgroundColor=default;" vertex="1" parent="1">
          <mxGeometry x="10" y="374.76" width="50" height="30" as="geometry" />
        </mxCell>
        <mxCell id="lGzkBSGwy-ZSneuleJNB-106" value="" style="ellipse;whiteSpace=wrap;html=1;aspect=fixed;fontFamily=Times New Roman;" vertex="1" parent="1">
          <mxGeometry x="-100" y="650" width="10" height="10" as="geometry" />
        </mxCell>
        <mxCell id="lGzkBSGwy-ZSneuleJNB-209" style="edgeStyle=orthogonalEdgeStyle;shape=connector;rounded=0;orthogonalLoop=1;jettySize=auto;html=1;exitX=0.5;exitY=1;exitDx=0;exitDy=0;strokeColor=default;align=center;verticalAlign=middle;fontFamily=Times New Roman;fontSize=11;fontColor=default;labelBackgroundColor=default;startFill=0;endArrow=none;" edge="1" parent="1" source="lGzkBSGwy-ZSneuleJNB-108">
          <mxGeometry relative="1" as="geometry">
            <mxPoint x="-760" y="700" as="targetPoint" />
          </mxGeometry>
        </mxCell>
        <mxCell id="lGzkBSGwy-ZSneuleJNB-108" value="Creazione" style="shape=rhombus;perimeter=rhombusPerimeter;whiteSpace=wrap;html=1;align=center;fontFamily=Times New Roman;" vertex="1" parent="1">
          <mxGeometry x="-820" y="490" width="120" height="60" as="geometry" />
        </mxCell>
        <mxCell id="lGzkBSGwy-ZSneuleJNB-110" value="" style="endArrow=none;html=1;rounded=0;strokeColor=default;align=center;verticalAlign=middle;fontFamily=Times New Roman;fontSize=11;fontColor=default;labelBackgroundColor=default;edgeStyle=orthogonalEdgeStyle;exitX=0.5;exitY=0;exitDx=0;exitDy=0;" edge="1" parent="1" source="lGzkBSGwy-ZSneuleJNB-108">
          <mxGeometry width="50" height="50" relative="1" as="geometry">
            <mxPoint x="-760" y="410" as="sourcePoint" />
            <mxPoint x="-760" y="390" as="targetPoint" />
          </mxGeometry>
        </mxCell>
        <mxCell id="lGzkBSGwy-ZSneuleJNB-148" style="edgeStyle=orthogonalEdgeStyle;shape=connector;rounded=0;orthogonalLoop=1;jettySize=auto;html=1;exitX=0.5;exitY=1;exitDx=0;exitDy=0;entryX=0.5;entryY=0;entryDx=0;entryDy=0;strokeColor=default;align=center;verticalAlign=middle;fontFamily=Times New Roman;fontSize=11;fontColor=default;labelBackgroundColor=default;startFill=0;endArrow=none;" edge="1" parent="1" source="lGzkBSGwy-ZSneuleJNB-111" target="lGzkBSGwy-ZSneuleJNB-113">
          <mxGeometry relative="1" as="geometry" />
        </mxCell>
        <mxCell id="lGzkBSGwy-ZSneuleJNB-111" value="&lt;font&gt;riferimento&lt;/font&gt;" style="shape=rhombus;perimeter=rhombusPerimeter;whiteSpace=wrap;html=1;align=center;fontFamily=Times New Roman;" vertex="1" parent="1">
          <mxGeometry x="-130" y="490" width="120" height="60" as="geometry" />
        </mxCell>
        <mxCell id="lGzkBSGwy-ZSneuleJNB-113" value="&lt;font&gt;Asta&lt;/font&gt;" style="whiteSpace=wrap;html=1;align=center;fontFamily=Times New Roman;" vertex="1" parent="1">
          <mxGeometry x="-130" y="680" width="120" height="40" as="geometry" />
        </mxCell>
        <mxCell id="lGzkBSGwy-ZSneuleJNB-129" value="&lt;font&gt;Importo&lt;/font&gt;&lt;div&gt;&lt;font&gt;Offerta max&lt;/font&gt;&lt;/div&gt;" style="text;html=1;align=center;verticalAlign=middle;resizable=0;points=[];autosize=1;strokeColor=none;fillColor=none;fontFamily=Times New Roman;fontSize=7;fontColor=default;labelBackgroundColor=default;" vertex="1" parent="1">
          <mxGeometry x="-220" y="808" width="60" height="30" as="geometry" />
        </mxCell>
        <mxCell id="lGzkBSGwy-ZSneuleJNB-131" value="" style="ellipse;whiteSpace=wrap;html=1;aspect=fixed;fontFamily=Times New Roman;" vertex="1" parent="1">
          <mxGeometry x="-135" y="853" width="10" height="10" as="geometry" />
        </mxCell>
        <mxCell id="lGzkBSGwy-ZSneuleJNB-132" value="" style="ellipse;whiteSpace=wrap;html=1;aspect=fixed;fontFamily=Times New Roman;" vertex="1" parent="1">
          <mxGeometry x="-115" y="853" width="10" height="10" as="geometry" />
        </mxCell>
        <mxCell id="lGzkBSGwy-ZSneuleJNB-133" style="edgeStyle=orthogonalEdgeStyle;shape=connector;rounded=0;orthogonalLoop=1;jettySize=auto;html=1;exitX=1;exitY=0.5;exitDx=0;exitDy=0;entryX=0;entryY=0.5;entryDx=0;entryDy=0;strokeColor=default;align=center;verticalAlign=middle;fontFamily=Times New Roman;fontSize=7;fontColor=default;labelBackgroundColor=default;autosize=1;resizable=0;startFill=0;endArrow=none;" edge="1" source="lGzkBSGwy-ZSneuleJNB-134" target="lGzkBSGwy-ZSneuleJNB-137" parent="1">
          <mxGeometry relative="1" as="geometry" />
        </mxCell>
        <mxCell id="lGzkBSGwy-ZSneuleJNB-134" value="" style="ellipse;whiteSpace=wrap;html=1;aspect=fixed;fontFamily=Times New Roman;" vertex="1" parent="1">
          <mxGeometry x="-170" y="813" width="10" height="10" as="geometry" />
        </mxCell>
        <mxCell id="lGzkBSGwy-ZSneuleJNB-135" value="" style="shape=flexArrow;endArrow=classic;html=1;rounded=0;strokeColor=default;align=center;verticalAlign=middle;fontFamily=Times New Roman;fontSize=7;fontColor=default;labelBackgroundColor=default;autosize=1;resizable=0;edgeStyle=orthogonalEdgeStyle;fillColor=#000000;" edge="1" parent="1">
          <mxGeometry width="50" height="50" relative="1" as="geometry">
            <mxPoint x="-65" y="763" as="sourcePoint" />
            <mxPoint x="-65" y="723" as="targetPoint" />
          </mxGeometry>
        </mxCell>
        <mxCell id="lGzkBSGwy-ZSneuleJNB-136" style="edgeStyle=orthogonalEdgeStyle;shape=connector;rounded=0;orthogonalLoop=1;jettySize=auto;html=1;exitX=0.5;exitY=0;exitDx=0;exitDy=0;strokeColor=default;align=center;verticalAlign=middle;fontFamily=Times New Roman;fontSize=7;fontColor=default;labelBackgroundColor=default;autosize=1;resizable=0;startFill=0;endArrow=none;" edge="1" source="lGzkBSGwy-ZSneuleJNB-137" parent="1">
          <mxGeometry relative="1" as="geometry">
            <mxPoint x="-115.11764705882354" y="763" as="targetPoint" />
          </mxGeometry>
        </mxCell>
        <mxCell id="lGzkBSGwy-ZSneuleJNB-137" value="&lt;font&gt;Asta&lt;/font&gt;&lt;div&gt;&lt;font&gt;Aperta&lt;/font&gt;&lt;/div&gt;" style="whiteSpace=wrap;html=1;align=center;verticalAlign=middle;fontFamily=Times New Roman;fontSize=7;fontColor=default;labelBackgroundColor=default;autosize=1;resizable=0;fillColor=none;gradientColor=none;" vertex="1" parent="1">
          <mxGeometry x="-135" y="803" width="40" height="30" as="geometry" />
        </mxCell>
        <mxCell id="lGzkBSGwy-ZSneuleJNB-138" value="" style="line;strokeWidth=1;rotatable=0;dashed=0;labelPosition=right;align=left;verticalAlign=middle;spacingTop=0;spacingLeft=6;points=[];portConstraint=eastwest;fontFamily=Times New Roman;fontSize=7;fontColor=default;labelBackgroundColor=default;autosize=1;resizable=0;fillColor=none;gradientColor=none;" vertex="1" parent="1">
          <mxGeometry x="-115" y="743" width="50" height="40" as="geometry" />
        </mxCell>
        <mxCell id="lGzkBSGwy-ZSneuleJNB-139" value="&lt;font&gt;Nuova&lt;/font&gt;&lt;div&gt;&lt;font&gt;Asta&lt;/font&gt;&lt;/div&gt;" style="whiteSpace=wrap;html=1;align=center;verticalAlign=middle;fontFamily=Times New Roman;fontSize=7;fontColor=default;labelBackgroundColor=default;autosize=1;resizable=0;fillColor=none;gradientColor=none;" vertex="1" parent="1">
          <mxGeometry x="-45" y="803" width="40" height="30" as="geometry" />
        </mxCell>
        <mxCell id="lGzkBSGwy-ZSneuleJNB-140" style="edgeStyle=orthogonalEdgeStyle;shape=connector;rounded=0;orthogonalLoop=1;jettySize=auto;html=1;exitX=0.5;exitY=0;exitDx=0;exitDy=0;entryX=1;entryY=0.5;entryDx=0;entryDy=0;entryPerimeter=0;strokeColor=default;align=center;verticalAlign=middle;fontFamily=Times New Roman;fontSize=7;fontColor=default;labelBackgroundColor=default;autosize=1;resizable=0;startFill=0;endArrow=none;" edge="1" source="lGzkBSGwy-ZSneuleJNB-139" target="lGzkBSGwy-ZSneuleJNB-138" parent="1">
          <mxGeometry relative="1" as="geometry" />
        </mxCell>
        <mxCell id="lGzkBSGwy-ZSneuleJNB-141" value="&lt;font&gt;Numero&lt;br&gt;Offerte&lt;/font&gt;" style="text;html=1;align=center;verticalAlign=middle;resizable=0;points=[];autosize=1;strokeColor=none;fillColor=none;fontFamily=Times New Roman;fontSize=7;fontColor=default;labelBackgroundColor=default;" vertex="1" parent="1">
          <mxGeometry x="-160" y="861" width="50" height="30" as="geometry" />
        </mxCell>
        <mxCell id="lGzkBSGwy-ZSneuleJNB-142" style="edgeStyle=orthogonalEdgeStyle;shape=connector;rounded=0;orthogonalLoop=1;jettySize=auto;html=1;exitX=0.5;exitY=0;exitDx=0;exitDy=0;entryX=0.13;entryY=0.996;entryDx=0;entryDy=0;entryPerimeter=0;strokeColor=default;align=center;verticalAlign=middle;fontFamily=Times New Roman;fontSize=7;fontColor=default;labelBackgroundColor=default;autosize=1;resizable=0;startFill=0;endArrow=none;" edge="1" source="lGzkBSGwy-ZSneuleJNB-131" target="lGzkBSGwy-ZSneuleJNB-137" parent="1">
          <mxGeometry relative="1" as="geometry" />
        </mxCell>
        <mxCell id="lGzkBSGwy-ZSneuleJNB-143" style="edgeStyle=orthogonalEdgeStyle;shape=connector;rounded=0;orthogonalLoop=1;jettySize=auto;html=1;exitX=0.5;exitY=0;exitDx=0;exitDy=0;entryX=0.624;entryY=0.977;entryDx=0;entryDy=0;entryPerimeter=0;strokeColor=default;align=center;verticalAlign=middle;fontFamily=Times New Roman;fontSize=7;fontColor=default;labelBackgroundColor=default;autosize=1;resizable=0;startFill=0;endArrow=none;" edge="1" source="lGzkBSGwy-ZSneuleJNB-132" target="lGzkBSGwy-ZSneuleJNB-137" parent="1">
          <mxGeometry relative="1" as="geometry" />
        </mxCell>
        <mxCell id="lGzkBSGwy-ZSneuleJNB-144" value="&lt;font&gt;Tempo&lt;/font&gt;&lt;div&gt;&lt;font&gt;Mancante&lt;/font&gt;&lt;/div&gt;" style="text;html=1;align=center;verticalAlign=middle;resizable=0;points=[];autosize=1;strokeColor=none;fillColor=none;fontFamily=Times New Roman;fontSize=7;fontColor=default;labelBackgroundColor=default;" vertex="1" parent="1">
          <mxGeometry x="-130" y="861" width="50" height="30" as="geometry" />
        </mxCell>
        <mxCell id="lGzkBSGwy-ZSneuleJNB-149" style="edgeStyle=orthogonalEdgeStyle;rounded=0;orthogonalLoop=1;jettySize=auto;html=1;exitX=0;exitY=0.5;exitDx=0;exitDy=0;endArrow=none;startFill=0;fontFamily=Times New Roman;" edge="1" source="lGzkBSGwy-ZSneuleJNB-157" target="lGzkBSGwy-ZSneuleJNB-158" parent="1">
          <mxGeometry relative="1" as="geometry" />
        </mxCell>
        <mxCell id="lGzkBSGwy-ZSneuleJNB-150" style="edgeStyle=orthogonalEdgeStyle;shape=connector;rounded=0;orthogonalLoop=1;jettySize=auto;html=1;exitX=0.5;exitY=1;exitDx=0;exitDy=0;entryX=0.089;entryY=0.032;entryDx=0;entryDy=0;entryPerimeter=0;strokeColor=default;align=center;verticalAlign=middle;fontFamily=Times New Roman;fontSize=7;fontColor=default;labelBackgroundColor=default;autosize=1;resizable=0;startFill=0;endArrow=none;" edge="1" source="lGzkBSGwy-ZSneuleJNB-159" target="lGzkBSGwy-ZSneuleJNB-158" parent="1">
          <mxGeometry relative="1" as="geometry" />
        </mxCell>
        <mxCell id="lGzkBSGwy-ZSneuleJNB-151" style="edgeStyle=orthogonalEdgeStyle;shape=connector;rounded=0;orthogonalLoop=1;jettySize=auto;html=1;exitX=0.5;exitY=1;exitDx=0;exitDy=0;entryX=0.273;entryY=0.015;entryDx=0;entryDy=0;entryPerimeter=0;strokeColor=default;align=center;verticalAlign=middle;fontFamily=Times New Roman;fontSize=7;fontColor=default;labelBackgroundColor=default;autosize=1;resizable=0;startFill=0;endArrow=none;" edge="1" source="lGzkBSGwy-ZSneuleJNB-160" target="lGzkBSGwy-ZSneuleJNB-158" parent="1">
          <mxGeometry relative="1" as="geometry" />
        </mxCell>
        <mxCell id="lGzkBSGwy-ZSneuleJNB-152" style="edgeStyle=orthogonalEdgeStyle;shape=connector;rounded=0;orthogonalLoop=1;jettySize=auto;html=1;exitX=0.5;exitY=1;exitDx=0;exitDy=0;entryX=0.91;entryY=0.003;entryDx=0;entryDy=0;entryPerimeter=0;strokeColor=default;align=center;verticalAlign=middle;fontFamily=Times New Roman;fontSize=7;fontColor=default;labelBackgroundColor=default;autosize=1;resizable=0;startFill=0;endArrow=none;" edge="1" source="lGzkBSGwy-ZSneuleJNB-162" target="lGzkBSGwy-ZSneuleJNB-158" parent="1">
          <mxGeometry relative="1" as="geometry" />
        </mxCell>
        <mxCell id="lGzkBSGwy-ZSneuleJNB-153" style="edgeStyle=orthogonalEdgeStyle;shape=connector;rounded=0;orthogonalLoop=1;jettySize=auto;html=1;exitX=0.5;exitY=0;exitDx=0;exitDy=0;entryX=0.818;entryY=1.009;entryDx=0;entryDy=0;entryPerimeter=0;strokeColor=default;align=center;verticalAlign=middle;fontFamily=Times New Roman;fontSize=7;fontColor=default;labelBackgroundColor=default;autosize=1;resizable=0;startFill=0;endArrow=none;" edge="1" source="lGzkBSGwy-ZSneuleJNB-161" target="lGzkBSGwy-ZSneuleJNB-158" parent="1">
          <mxGeometry relative="1" as="geometry" />
        </mxCell>
        <mxCell id="lGzkBSGwy-ZSneuleJNB-156" style="edgeStyle=orthogonalEdgeStyle;rounded=0;orthogonalLoop=1;jettySize=auto;html=1;exitX=0.5;exitY=0;exitDx=0;exitDy=0;entryX=0.088;entryY=0.98;entryDx=0;entryDy=0;entryPerimeter=0;endArrow=none;startFill=0;fontFamily=Times New Roman;" edge="1" source="lGzkBSGwy-ZSneuleJNB-163" target="lGzkBSGwy-ZSneuleJNB-158" parent="1">
          <mxGeometry relative="1" as="geometry" />
        </mxCell>
        <mxCell id="lGzkBSGwy-ZSneuleJNB-195" style="edgeStyle=orthogonalEdgeStyle;shape=connector;rounded=0;orthogonalLoop=1;jettySize=auto;html=1;exitX=1;exitY=0.5;exitDx=0;exitDy=0;entryX=0;entryY=0.5;entryDx=0;entryDy=0;strokeColor=default;align=center;verticalAlign=middle;fontFamily=Times New Roman;fontSize=11;fontColor=default;labelBackgroundColor=default;startFill=0;endArrow=none;" edge="1" parent="1" source="lGzkBSGwy-ZSneuleJNB-157" target="lGzkBSGwy-ZSneuleJNB-113">
          <mxGeometry relative="1" as="geometry" />
        </mxCell>
        <mxCell id="lGzkBSGwy-ZSneuleJNB-157" value="Relativa" style="shape=rhombus;perimeter=rhombusPerimeter;whiteSpace=wrap;html=1;align=center;fontColor=#000000;fontFamily=Times New Roman;" vertex="1" parent="1">
          <mxGeometry x="-340" y="670" width="120" height="60" as="geometry" />
        </mxCell>
        <mxCell id="lGzkBSGwy-ZSneuleJNB-210" style="edgeStyle=orthogonalEdgeStyle;shape=connector;rounded=0;orthogonalLoop=1;jettySize=auto;html=1;exitX=0;exitY=0.5;exitDx=0;exitDy=0;strokeColor=default;align=center;verticalAlign=middle;fontFamily=Times New Roman;fontSize=11;fontColor=default;labelBackgroundColor=default;startFill=0;endArrow=none;" edge="1" parent="1" source="lGzkBSGwy-ZSneuleJNB-158">
          <mxGeometry relative="1" as="geometry">
            <mxPoint x="-760" y="699.952380952381" as="targetPoint" />
          </mxGeometry>
        </mxCell>
        <mxCell id="lGzkBSGwy-ZSneuleJNB-158" value="Oggetto" style="whiteSpace=wrap;html=1;align=center;fontFamily=Times New Roman;" vertex="1" parent="1">
          <mxGeometry x="-505" y="680" width="110" height="40" as="geometry" />
        </mxCell>
        <mxCell id="lGzkBSGwy-ZSneuleJNB-159" value="" style="ellipse;whiteSpace=wrap;html=1;aspect=fixed;fillColor=#000000;fontFamily=Times New Roman;" vertex="1" parent="1">
          <mxGeometry x="-500" y="650" width="10" height="10" as="geometry" />
        </mxCell>
        <mxCell id="lGzkBSGwy-ZSneuleJNB-160" value="" style="ellipse;whiteSpace=wrap;html=1;aspect=fixed;fontFamily=Times New Roman;" vertex="1" parent="1">
          <mxGeometry x="-480" y="650" width="10" height="10" as="geometry" />
        </mxCell>
        <mxCell id="lGzkBSGwy-ZSneuleJNB-161" value="" style="ellipse;whiteSpace=wrap;html=1;aspect=fixed;fontFamily=Times New Roman;" vertex="1" parent="1">
          <mxGeometry x="-420" y="740" width="10" height="10" as="geometry" />
        </mxCell>
        <mxCell id="lGzkBSGwy-ZSneuleJNB-162" value="" style="ellipse;whiteSpace=wrap;html=1;aspect=fixed;fontFamily=Times New Roman;" vertex="1" parent="1">
          <mxGeometry x="-410" y="640" width="10" height="10" as="geometry" />
        </mxCell>
        <mxCell id="lGzkBSGwy-ZSneuleJNB-163" value="" style="ellipse;whiteSpace=wrap;html=1;aspect=fixed;fontFamily=Times New Roman;" vertex="1" parent="1">
          <mxGeometry x="-500" y="740" width="10" height="10" as="geometry" />
        </mxCell>
        <mxCell id="lGzkBSGwy-ZSneuleJNB-164" value="Codice&amp;nbsp;" style="text;html=1;align=center;verticalAlign=middle;resizable=0;points=[];autosize=1;strokeColor=none;fillColor=none;fontFamily=Times New Roman;fontSize=7;fontColor=default;labelBackgroundColor=default;" vertex="1" parent="1">
          <mxGeometry x="-530" y="630" width="50" height="20" as="geometry" />
        </mxCell>
        <mxCell id="lGzkBSGwy-ZSneuleJNB-165" value="Descrizione" style="text;html=1;align=center;verticalAlign=middle;resizable=0;points=[];autosize=1;strokeColor=none;fillColor=none;fontFamily=Times New Roman;fontSize=7;fontColor=default;labelBackgroundColor=default;" vertex="1" parent="1">
          <mxGeometry x="-500" y="630" width="60" height="20" as="geometry" />
        </mxCell>
        <mxCell id="lGzkBSGwy-ZSneuleJNB-166" value="(1,1)" style="text;html=1;align=center;verticalAlign=middle;resizable=0;points=[];autosize=1;strokeColor=none;fillColor=none;fontFamily=Times New Roman;fontSize=7;fontColor=default;labelBackgroundColor=default;" vertex="1" parent="1">
          <mxGeometry x="-400" y="680" width="40" height="20" as="geometry" />
        </mxCell>
        <mxCell id="lGzkBSGwy-ZSneuleJNB-167" value="(0,n)" style="text;html=1;align=center;verticalAlign=middle;resizable=0;points=[];autosize=1;strokeColor=none;fillColor=none;fontFamily=Times New Roman;fontSize=7;fontColor=default;labelBackgroundColor=default;" vertex="1" parent="1">
          <mxGeometry x="-455" y="660" width="40" height="20" as="geometry" />
        </mxCell>
        <mxCell id="lGzkBSGwy-ZSneuleJNB-168" value="(1,1)" style="text;html=1;align=center;verticalAlign=middle;resizable=0;points=[];autosize=1;strokeColor=none;fillColor=none;fontFamily=Times New Roman;fontSize=7;fontColor=default;labelBackgroundColor=default;" vertex="1" parent="1">
          <mxGeometry x="-470" y="718" width="40" height="20" as="geometry" />
        </mxCell>
        <mxCell id="lGzkBSGwy-ZSneuleJNB-175" value="" style="edgeStyle=orthogonalEdgeStyle;elbow=vertical;endArrow=none;html=1;curved=1;rounded=0;endSize=8;startSize=8;strokeColor=default;align=center;verticalAlign=middle;fontFamily=Times New Roman;fontSize=7;fontColor=default;labelBackgroundColor=default;autosize=1;resizable=0;startFill=0;exitDx=0;exitDy=0;exitPerimeter=0;" edge="1" parent="1">
          <mxGeometry width="50" height="50" relative="1" as="geometry">
            <mxPoint x="-205" y="735" as="sourcePoint" />
            <mxPoint x="-205" y="734" as="targetPoint" />
          </mxGeometry>
        </mxCell>
        <mxCell id="lGzkBSGwy-ZSneuleJNB-197" value="" style="endArrow=none;html=1;rounded=0;strokeColor=default;align=center;verticalAlign=middle;fontFamily=Times New Roman;fontSize=11;fontColor=default;labelBackgroundColor=default;edgeStyle=orthogonalEdgeStyle;" edge="1" parent="1">
          <mxGeometry width="50" height="50" relative="1" as="geometry">
            <mxPoint x="-560" y="280" as="sourcePoint" />
            <mxPoint x="-600" y="280" as="targetPoint" />
          </mxGeometry>
        </mxCell>
        <mxCell id="lGzkBSGwy-ZSneuleJNB-199" value="" style="edgeStyle=none;orthogonalLoop=1;jettySize=auto;html=1;rounded=0;strokeColor=default;align=center;verticalAlign=middle;fontFamily=Times New Roman;fontSize=11;fontColor=default;labelBackgroundColor=default;startFill=0;endArrow=none;exitX=0.4;exitY=0.991;exitDx=0;exitDy=0;exitPerimeter=0;" edge="1" parent="1" source="lGzkBSGwy-ZSneuleJNB-32">
          <mxGeometry width="100" relative="1" as="geometry">
            <mxPoint x="-370" y="299.67" as="sourcePoint" />
            <mxPoint x="-400" y="320" as="targetPoint" />
            <Array as="points" />
          </mxGeometry>
        </mxCell>
        <mxCell id="lGzkBSGwy-ZSneuleJNB-200" value="" style="edgeStyle=none;orthogonalLoop=1;jettySize=auto;html=1;rounded=0;strokeColor=default;align=center;verticalAlign=middle;fontFamily=Times New Roman;fontSize=11;fontColor=default;labelBackgroundColor=default;startFill=0;endArrow=none;entryX=0.817;entryY=-0.003;entryDx=0;entryDy=0;entryPerimeter=0;" edge="1" parent="1" target="lGzkBSGwy-ZSneuleJNB-13">
          <mxGeometry width="100" relative="1" as="geometry">
            <mxPoint x="-400" y="360" as="sourcePoint" />
            <mxPoint x="-260" y="290" as="targetPoint" />
            <Array as="points" />
          </mxGeometry>
        </mxCell>
        <mxCell id="lGzkBSGwy-ZSneuleJNB-205" value="Posseduto" style="shape=rhombus;perimeter=rhombusPerimeter;whiteSpace=wrap;html=1;align=center;fontFamily=Times New Roman;" vertex="1" parent="1">
          <mxGeometry x="-480" y="490" width="120" height="60" as="geometry" />
        </mxCell>
        <mxCell id="lGzkBSGwy-ZSneuleJNB-207" style="edgeStyle=orthogonalEdgeStyle;shape=connector;rounded=0;orthogonalLoop=1;jettySize=auto;html=1;exitX=0.5;exitY=0;exitDx=0;exitDy=0;strokeColor=default;align=center;verticalAlign=middle;fontFamily=Times New Roman;fontSize=11;fontColor=default;labelBackgroundColor=default;startFill=0;endArrow=none;" edge="1" parent="1" source="lGzkBSGwy-ZSneuleJNB-205">
          <mxGeometry relative="1" as="geometry">
            <mxPoint x="-420" y="410" as="targetPoint" />
          </mxGeometry>
        </mxCell>
        <mxCell id="lGzkBSGwy-ZSneuleJNB-208" style="edgeStyle=orthogonalEdgeStyle;shape=connector;rounded=0;orthogonalLoop=1;jettySize=auto;html=1;exitX=0.5;exitY=1;exitDx=0;exitDy=0;entryX=0.776;entryY=0.002;entryDx=0;entryDy=0;entryPerimeter=0;strokeColor=default;align=center;verticalAlign=middle;fontFamily=Times New Roman;fontSize=11;fontColor=default;labelBackgroundColor=default;startFill=0;endArrow=none;" edge="1" parent="1" source="lGzkBSGwy-ZSneuleJNB-205" target="lGzkBSGwy-ZSneuleJNB-158">
          <mxGeometry relative="1" as="geometry" />
        </mxCell>
        <mxCell id="lGzkBSGwy-ZSneuleJNB-225" value="Appartenenza" style="shape=rhombus;perimeter=rhombusPerimeter;whiteSpace=wrap;html=1;align=center;fontFamily=Times New Roman;" vertex="1" parent="1">
          <mxGeometry x="-500" y="838" width="120" height="60" as="geometry" />
        </mxCell>
        <mxCell id="lGzkBSGwy-ZSneuleJNB-232" style="edgeStyle=orthogonalEdgeStyle;shape=connector;rounded=0;orthogonalLoop=1;jettySize=auto;html=1;exitX=1;exitY=0.5;exitDx=0;exitDy=0;strokeColor=default;align=center;verticalAlign=middle;fontFamily=Times New Roman;fontSize=11;fontColor=default;labelBackgroundColor=default;startFill=0;endArrow=none;" edge="1" parent="1" source="lGzkBSGwy-ZSneuleJNB-226">
          <mxGeometry relative="1" as="geometry">
            <mxPoint x="-500" y="868.0384615384615" as="targetPoint" />
          </mxGeometry>
        </mxCell>
        <mxCell id="lGzkBSGwy-ZSneuleJNB-226" value="Categoria&amp;nbsp;" style="whiteSpace=wrap;html=1;align=center;fontFamily=Times New Roman;" vertex="1" parent="1">
          <mxGeometry x="-690" y="848" width="100" height="40" as="geometry" />
        </mxCell>
        <mxCell id="lGzkBSGwy-ZSneuleJNB-227" value="" style="ellipse;whiteSpace=wrap;html=1;aspect=fixed;fillColor=#000000;fontFamily=Times New Roman;" vertex="1" parent="1">
          <mxGeometry x="-625" y="928" width="10" height="10" as="geometry" />
        </mxCell>
        <mxCell id="lGzkBSGwy-ZSneuleJNB-228" value="Nome Categoria" style="text;html=1;align=center;verticalAlign=middle;resizable=0;points=[];autosize=1;strokeColor=none;fillColor=none;fontFamily=Times New Roman;fontSize=7;fontColor=default;labelBackgroundColor=default;" vertex="1" parent="1">
          <mxGeometry x="-670" y="938" width="70" height="20" as="geometry" />
        </mxCell>
        <mxCell id="lGzkBSGwy-ZSneuleJNB-229" value="(1,n)" style="text;html=1;align=center;verticalAlign=middle;resizable=0;points=[];autosize=1;strokeColor=none;fillColor=none;fontFamily=Times New Roman;fontSize=7;fontColor=default;labelBackgroundColor=default;" vertex="1" parent="1">
          <mxGeometry x="-600" y="863" width="40" height="20" as="geometry" />
        </mxCell>
        <mxCell id="lGzkBSGwy-ZSneuleJNB-230" style="edgeStyle=orthogonalEdgeStyle;rounded=0;orthogonalLoop=1;jettySize=auto;html=1;exitX=0.5;exitY=0;exitDx=0;exitDy=0;entryX=0.7;entryY=0.983;entryDx=0;entryDy=0;entryPerimeter=0;endArrow=none;startFill=0;fontFamily=Times New Roman;" edge="1" source="lGzkBSGwy-ZSneuleJNB-227" target="lGzkBSGwy-ZSneuleJNB-226" parent="1">
          <mxGeometry relative="1" as="geometry" />
        </mxCell>
        <mxCell id="lGzkBSGwy-ZSneuleJNB-233" style="edgeStyle=orthogonalEdgeStyle;shape=connector;rounded=0;orthogonalLoop=1;jettySize=auto;html=1;exitX=0.5;exitY=0;exitDx=0;exitDy=0;entryX=0.591;entryY=1.006;entryDx=0;entryDy=0;entryPerimeter=0;strokeColor=default;align=center;verticalAlign=middle;fontFamily=Times New Roman;fontSize=11;fontColor=default;labelBackgroundColor=default;startFill=0;endArrow=none;" edge="1" parent="1" source="lGzkBSGwy-ZSneuleJNB-225" target="lGzkBSGwy-ZSneuleJNB-158">
          <mxGeometry relative="1" as="geometry" />
        </mxCell>
        <mxCell id="lGzkBSGwy-ZSneuleJNB-234" value="&lt;font&gt;(1,n)&lt;/font&gt;" style="text;html=1;align=center;verticalAlign=middle;resizable=0;points=[];autosize=1;strokeColor=none;fillColor=none;fontFamily=Times New Roman;fontSize=7;fontColor=default;labelBackgroundColor=default;" vertex="1" parent="1">
          <mxGeometry x="-390" y="375.4" width="40" height="20" as="geometry" />
        </mxCell>
        <mxCell id="lGzkBSGwy-ZSneuleJNB-235" style="edgeStyle=orthogonalEdgeStyle;shape=connector;rounded=0;orthogonalLoop=1;jettySize=auto;html=1;exitX=1;exitY=0.5;exitDx=0;exitDy=0;entryX=-0.004;entryY=0.63;entryDx=0;entryDy=0;entryPerimeter=0;strokeColor=default;align=center;verticalAlign=middle;fontFamily=Times New Roman;fontSize=11;fontColor=default;labelBackgroundColor=default;startFill=0;endArrow=none;" edge="1" parent="1" source="lGzkBSGwy-ZSneuleJNB-84" target="lGzkBSGwy-ZSneuleJNB-88">
          <mxGeometry relative="1" as="geometry" />
        </mxCell>
        <mxCell id="lGzkBSGwy-ZSneuleJNB-236" value="&lt;font&gt;(0,1)&lt;/font&gt;" style="text;html=1;align=center;verticalAlign=middle;resizable=0;points=[];autosize=1;strokeColor=none;fillColor=none;fontFamily=Times New Roman;fontSize=7;fontColor=default;labelBackgroundColor=default;" vertex="1" parent="1">
          <mxGeometry x="-160" y="389.76" width="40" height="20" as="geometry" />
        </mxCell>
        <mxCell id="lGzkBSGwy-ZSneuleJNB-238" value="&lt;font&gt;(1,n)&lt;/font&gt;" style="text;html=1;align=center;verticalAlign=middle;resizable=0;points=[];autosize=1;strokeColor=none;fillColor=none;fontFamily=Times New Roman;fontSize=7;fontColor=default;labelBackgroundColor=default;" vertex="1" parent="1">
          <mxGeometry x="-80" y="409.76" width="40" height="20" as="geometry" />
        </mxCell>
        <mxCell id="lGzkBSGwy-ZSneuleJNB-239" value="&lt;font&gt;(1,n)&lt;/font&gt;" style="text;html=1;align=center;verticalAlign=middle;resizable=0;points=[];autosize=1;strokeColor=none;fillColor=none;fontFamily=Times New Roman;fontSize=7;fontColor=default;labelBackgroundColor=default;" vertex="1" parent="1">
          <mxGeometry x="-80" y="660" width="40" height="20" as="geometry" />
        </mxCell>
        <mxCell id="lGzkBSGwy-ZSneuleJNB-241" value="" style="ellipse;whiteSpace=wrap;html=1;aspect=fixed;fontFamily=Times New Roman;" vertex="1" parent="1">
          <mxGeometry x="-30" y="650" width="10" height="10" as="geometry" />
        </mxCell>
        <mxCell id="lGzkBSGwy-ZSneuleJNB-242" style="edgeStyle=orthogonalEdgeStyle;shape=connector;rounded=0;orthogonalLoop=1;jettySize=auto;html=1;exitX=0.5;exitY=1;exitDx=0;exitDy=0;entryX=0.875;entryY=0.015;entryDx=0;entryDy=0;entryPerimeter=0;strokeColor=default;align=center;verticalAlign=middle;fontFamily=Times New Roman;fontSize=11;fontColor=default;labelBackgroundColor=default;startFill=0;endArrow=none;" edge="1" parent="1" source="lGzkBSGwy-ZSneuleJNB-241" target="lGzkBSGwy-ZSneuleJNB-113">
          <mxGeometry relative="1" as="geometry" />
        </mxCell>
        <mxCell id="lGzkBSGwy-ZSneuleJNB-244" style="edgeStyle=orthogonalEdgeStyle;shape=connector;rounded=0;orthogonalLoop=1;jettySize=auto;html=1;exitX=0.5;exitY=1;exitDx=0;exitDy=0;entryX=0.292;entryY=0;entryDx=0;entryDy=0;entryPerimeter=0;strokeColor=default;align=center;verticalAlign=middle;fontFamily=Times New Roman;fontSize=11;fontColor=default;labelBackgroundColor=default;startFill=0;endArrow=none;" edge="1" parent="1" source="lGzkBSGwy-ZSneuleJNB-106" target="lGzkBSGwy-ZSneuleJNB-113">
          <mxGeometry relative="1" as="geometry" />
        </mxCell>
        <mxCell id="lGzkBSGwy-ZSneuleJNB-245" value="&lt;font&gt;Durata&lt;/font&gt;" style="text;html=1;align=center;verticalAlign=middle;resizable=0;points=[];autosize=1;strokeColor=none;fillColor=none;fontFamily=Times New Roman;fontSize=7;fontColor=default;labelBackgroundColor=default;" vertex="1" parent="1">
          <mxGeometry x="-115" y="635" width="40" height="20" as="geometry" />
        </mxCell>
        <mxCell id="lGzkBSGwy-ZSneuleJNB-246" value="&lt;font&gt;Data Inizio&lt;/font&gt;" style="text;html=1;align=center;verticalAlign=middle;resizable=0;points=[];autosize=1;strokeColor=none;fillColor=none;fontFamily=Times New Roman;fontSize=7;fontColor=default;labelBackgroundColor=default;" vertex="1" parent="1">
          <mxGeometry x="-50" y="635" width="50" height="20" as="geometry" />
        </mxCell>
        <mxCell id="lGzkBSGwy-ZSneuleJNB-250" value="&lt;font&gt;(1,1)&lt;/font&gt;" style="text;html=1;align=center;verticalAlign=middle;resizable=0;points=[];autosize=1;strokeColor=none;fillColor=none;fontFamily=Times New Roman;fontSize=7;fontColor=default;labelBackgroundColor=default;" vertex="1" parent="1">
          <mxGeometry x="-160" y="680" width="40" height="20" as="geometry" />
        </mxCell>
        <mxCell id="lGzkBSGwy-ZSneuleJNB-252" style="edgeStyle=orthogonalEdgeStyle;shape=connector;rounded=0;orthogonalLoop=1;jettySize=auto;html=1;exitX=0.5;exitY=1;exitDx=0;exitDy=0;strokeColor=default;align=center;verticalAlign=middle;fontFamily=Times New Roman;fontSize=11;fontColor=default;labelBackgroundColor=default;startFill=0;endArrow=none;" edge="1" parent="1" source="lGzkBSGwy-ZSneuleJNB-251">
          <mxGeometry relative="1" as="geometry">
            <mxPoint x="-175.06040268456377" y="720" as="targetPoint" />
          </mxGeometry>
        </mxCell>
        <mxCell id="lGzkBSGwy-ZSneuleJNB-251" value="" style="ellipse;whiteSpace=wrap;html=1;aspect=fixed;fillColor=#000000;fontFamily=Times New Roman;" vertex="1" parent="1">
          <mxGeometry x="-180" y="670" width="10" height="10" as="geometry" />
        </mxCell>
        <mxCell id="lGzkBSGwy-ZSneuleJNB-253" value="&lt;font&gt;Prezzo base&lt;/font&gt;" style="text;html=1;align=center;verticalAlign=middle;resizable=0;points=[];autosize=1;strokeColor=none;fillColor=none;fontFamily=Times New Roman;fontSize=7;fontColor=default;labelBackgroundColor=default;" vertex="1" parent="1">
          <mxGeometry x="-425" y="625" width="60" height="20" as="geometry" />
        </mxCell>
        <mxCell id="lGzkBSGwy-ZSneuleJNB-254" value="(1,1)" style="text;html=1;align=center;verticalAlign=middle;resizable=0;points=[];autosize=1;strokeColor=none;fillColor=none;fontFamily=Times New Roman;fontSize=7;fontColor=default;labelBackgroundColor=default;" vertex="1" parent="1">
          <mxGeometry x="-545" y="680" width="40" height="20" as="geometry" />
        </mxCell>
        <mxCell id="lGzkBSGwy-ZSneuleJNB-255" value="Dimensioni" style="text;html=1;align=center;verticalAlign=middle;resizable=0;points=[];autosize=1;strokeColor=none;fillColor=none;fontFamily=Times New Roman;fontSize=7;fontColor=default;labelBackgroundColor=default;" vertex="1" parent="1">
          <mxGeometry x="-525" y="753" width="60" height="20" as="geometry" />
        </mxCell>
        <mxCell id="lGzkBSGwy-ZSneuleJNB-256" value="Stato" style="text;html=1;align=center;verticalAlign=middle;resizable=0;points=[];autosize=1;strokeColor=none;fillColor=none;fontFamily=Times New Roman;fontSize=7;fontColor=default;labelBackgroundColor=default;" vertex="1" parent="1">
          <mxGeometry x="-425" y="750" width="40" height="20" as="geometry" />
        </mxCell>
        <mxCell id="lGzkBSGwy-ZSneuleJNB-257" value="(1,n)" style="text;html=1;align=center;verticalAlign=middle;resizable=0;points=[];autosize=1;strokeColor=none;fillColor=none;fontFamily=Times New Roman;fontSize=7;fontColor=default;labelBackgroundColor=default;" vertex="1" parent="1">
          <mxGeometry x="-700" y="370.4" width="40" height="20" as="geometry" />
        </mxCell>
        <mxCell id="lGzkBSGwy-ZSneuleJNB-265" value="&lt;font face=&quot;Times New Roman&quot;&gt;Controfferta Automatica&lt;/font&gt;" style="whiteSpace=wrap;html=1;align=center;verticalAlign=middle;fontFamily=Helvetica;fontSize=11;fontColor=default;labelBackgroundColor=default;autosize=1;resizable=0;fillColor=none;gradientColor=none;" vertex="1" parent="1">
          <mxGeometry x="-110" y="300" width="130" height="30" as="geometry" />
        </mxCell>
        <mxCell id="lGzkBSGwy-ZSneuleJNB-272" style="edgeStyle=orthogonalEdgeStyle;shape=connector;rounded=0;orthogonalLoop=1;jettySize=auto;html=1;exitX=0.5;exitY=1;exitDx=0;exitDy=0;entryX=0.347;entryY=0.005;entryDx=0;entryDy=0;entryPerimeter=0;strokeColor=default;align=center;verticalAlign=middle;fontFamily=Helvetica;fontSize=11;fontColor=default;labelBackgroundColor=default;startFill=0;endArrow=none;" edge="1" parent="1" source="lGzkBSGwy-ZSneuleJNB-57" target="lGzkBSGwy-ZSneuleJNB-265">
          <mxGeometry relative="1" as="geometry" />
        </mxCell>
        <mxCell id="lGzkBSGwy-ZSneuleJNB-273" value="&lt;font face=&quot;Times New Roman&quot;&gt;Offerta massima&lt;br&gt;&lt;/font&gt;" style="text;html=1;align=center;verticalAlign=middle;resizable=0;points=[];autosize=1;strokeColor=none;fillColor=none;fontFamily=Helvetica;fontSize=7;fontColor=default;labelBackgroundColor=default;" vertex="1" parent="1">
          <mxGeometry x="-100" y="255" width="70" height="20" as="geometry" />
        </mxCell>
        <mxCell id="lGzkBSGwy-ZSneuleJNB-275" value="" style="shape=flexArrow;endArrow=classic;html=1;rounded=0;strokeColor=default;align=center;verticalAlign=middle;fontFamily=Times New Roman;fontSize=7;fontColor=default;labelBackgroundColor=default;autosize=1;resizable=0;edgeStyle=orthogonalEdgeStyle;fillColor=#FFFFFF;" edge="1" parent="1">
          <mxGeometry width="50" height="50" relative="1" as="geometry">
            <mxPoint x="-55" y="330" as="sourcePoint" />
            <mxPoint x="-55" y="370" as="targetPoint" />
          </mxGeometry>
        </mxCell>
      </root>
    </mxGraphModel>
  </diagram>
</mxfile>
